<?xml version="1.0" encoding="utf-8"?>
<!-- Generator: Adobe Illustrator 18.1.1, SVG Export Plug-In . SVG Version: 6.00 Build 0)  -->
<svg version="1.1" id="Layer_1" xmlns="http://www.w3.org/2000/svg" xmlns:xlink="http://www.w3.org/1999/xlink" x="0px" y="0px"
	 viewBox="0 0 100 100" enable-background="new 0 0 100 100" xml:space="preserve">
<g>
	<circle fill="#D0CAC3" cx="50" cy="50" r="50"/>
</g>
<path fill="#090C10" d="M23,52.4c0-9.8,2.1-18.8,6.2-27.1C34.3,15.1,41.3,10,50.2,10c8.8,0,15.7,4.4,20.6,13.1
	c4.1,7.2,6.2,15.5,6.2,25.1c0,9.9-2.1,18.8-6.2,26.8c-5,10.1-12,15.1-21,15.1c-8.5,0-15.3-4.3-20.3-12.9C25.2,69.7,23,61.5,23,52.4z
	 M34.3,48c0,12.9,1.9,23,5.8,30.2c2.7,5,6.1,7.5,10.4,7.5c10.1,0,15.2-10.5,15.2-31.5c0-9.2-0.8-17.1-2.4-23.4
	C60.5,20.2,55.8,15,49.1,15c-9.9,0-14.8,10.2-14.8,30.4V48z"/>
</svg>
