<?xml version="1.0" encoding="utf-8"?>
<!-- Generator: Adobe Illustrator 18.1.1, SVG Export Plug-In . SVG Version: 6.00 Build 0)  -->
<svg version="1.1" id="Layer_1" xmlns="http://www.w3.org/2000/svg" xmlns:xlink="http://www.w3.org/1999/xlink" x="0px" y="0px"
	 viewBox="0 0 100 100" enable-background="new 0 0 100 100" xml:space="preserve">
<g>
	<circle fill="#D0CAC3" cx="50" cy="50" r="50"/>
</g>
<path fill="#090C10" d="M77.4,70.1L71.5,90h-49v-4.3c2.4-2.7,7.6-8,15.6-16.1c4.8-4.9,9.6-10,14.4-15.4c2.4-2.7,4.2-4.9,5.5-6.9
	c2.8-4.1,4.3-8.3,4.3-12.6c0-4.2-1.3-7.9-3.9-11.1c-2.6-3.2-6-4.8-10.1-4.8c-8.9,0-15.8,6-20.9,18l-4.4-1.6C29,18.4,38.4,10,51.2,10
	c6.3,0,11.7,2.1,16.1,6.4c4.4,4.3,6.7,9.6,6.7,15.9c0,8.1-4.6,15.9-13.9,23.6l-9.6,8c-6.1,5.1-11.2,9.9-15.2,14.4
	c-0.3,0.3-0.8,0.9-1.6,1.9h25.5c3.9,0,6.9-0.8,8.9-2.3c1.7-1.4,3.4-4,5.1-7.8H77.4z"/>
</svg>
