<?xml version="1.0" encoding="utf-8"?>
<!-- Generator: Adobe Illustrator 18.1.1, SVG Export Plug-In . SVG Version: 6.00 Build 0)  -->
<svg version="1.1" id="Layer_1" xmlns="http://www.w3.org/2000/svg" xmlns:xlink="http://www.w3.org/1999/xlink" x="0px" y="0px"
	 viewBox="0 0 100 100" enable-background="new 0 0 100 100" xml:space="preserve">
<g>
	<circle fill="#D0CAC3" cx="50" cy="50" r="50"/>
</g>
<path fill="#090C10" d="M39.6,52.6l-2-3.8l1.3-0.8c5.2-3.1,9.9-6.3,14.2-9.6c4.3-3.2,6.4-6.9,6.4-11c0-2.8-1-5.1-3.1-7
	c-2.1-1.9-4.5-2.8-7.2-2.8c-6.4,0-13.2,4-20.4,12L25.4,27C32.9,15.7,42,10,52.8,10c4.8,0,8.8,1.2,12.1,3.5c3.8,2.6,5.7,6.2,5.7,10.6
	c0,3.2-1.3,6.4-4,9.4c-1.5,1.8-4.2,4.1-8.1,7l-1.6,1.2c0.7-0.1,1.6-0.1,2.6-0.1c4.9,0,9,1.9,12.2,5.7c3.2,3.8,4.8,8.2,4.8,13.2
	c0,8.5-3.6,15.7-10.8,21.4c-6.6,5.4-14.3,8.1-23,8.1c-8,0-14.3-1.7-18.9-5.2l2.4-3.4c5.4,2.6,10.3,3.9,14.7,3.9
	c6.4,0,12.1-2.1,17-6.3c5-4.2,7.5-9.5,7.5-15.8c0-4.1-1.3-7.7-3.8-10.6c-2.5-2.9-5.8-4.4-9.8-4.4C48,48.3,44,49.7,39.6,52.6z"/>
</svg>
