<?xml version="1.0" encoding="utf-8"?>
<!-- Generator: Adobe Illustrator 18.1.1, SVG Export Plug-In . SVG Version: 6.00 Build 0)  -->
<svg version="1.1" id="Layer_1" xmlns="http://www.w3.org/2000/svg" xmlns:xlink="http://www.w3.org/1999/xlink" x="0px" y="0px"
	 viewBox="0 0 100 100" enable-background="new 0 0 100 100" xml:space="preserve">
<g>
	<circle fill="#D0CAC3" cx="50" cy="50" r="50"/>
</g>
<path fill="#090C10" d="M35,11.4h28.9c3.8,0,6-0.5,6.7-1.4h4.2l-2.4,10.9H37l-3.4,15.8c5.1-2.1,9.7-3.1,13.6-3.1
	c7.7,0,14.3,2.6,19.6,7.8c5.3,5.2,8,11.6,8,19.4c0,9-3.5,16.2-10.4,21.7C58,87.5,50.2,90,41,90c-5.4,0-10.7-0.8-15.8-2.4l1.6-4
	c4.3,1.2,8.1,1.8,11.5,1.8c6.7,0,12.5-2.2,17.5-6.5c5-4.4,7.5-9.8,7.5-16.4c0-5.7-1.8-10.3-5.5-14c-3.7-3.6-8.4-5.5-14-5.5
	c-5.2,0-10.1,1.8-14.6,5.4l-2.7-0.5L35,11.4z"/>
</svg>
