<?xml version="1.0" encoding="utf-8"?>
<!-- Generator: Adobe Illustrator 18.1.1, SVG Export Plug-In . SVG Version: 6.00 Build 0)  -->
<svg version="1.1" id="Layer_1" xmlns="http://www.w3.org/2000/svg" xmlns:xlink="http://www.w3.org/1999/xlink" x="0px" y="0px"
	 viewBox="0 0 100 100" enable-background="new 0 0 100 100" xml:space="preserve">
<g>
	<circle fill="#D0CAC3" cx="50" cy="50" r="50"/>
</g>
<path fill="#090C10" d="M36.6,44.7c5.9-5.6,11.9-8.4,17.9-8.4c6.6,0,11.8,2.6,15.8,7.8c3.7,4.8,5.5,10.5,5.5,17.3
	c0,7.4-2.2,13.8-6.5,19.4C64.6,86.9,58.7,90,51.6,90c-8.5,0-15.4-3.7-20.5-11.1c-4.6-6.5-6.9-14.2-6.9-23.1c0-9.4,2.6-18.1,7.8-26.1
	c5.2-8,12.2-13.6,20.9-16.9C57.8,11,63.1,10,68.5,10v4.2c-11.7,0.6-20.4,5.3-26.2,14C39.4,32.7,37.5,38.2,36.6,44.7z M35.8,52.8
	c-0.1,1.6-0.1,3.2-0.1,4.9c0,6.2,1.1,12,3.2,17.3c2.8,6.9,6.9,10.4,12.3,10.4c4.7,0,8.2-2.4,10.5-7.2c1.8-3.7,2.7-8.1,2.7-13.4
	c0-5.6-0.9-10.3-2.6-14.3c-2.3-5.4-5.9-8.1-10.8-8.1C45.1,42.4,40,45.8,35.8,52.8z"/>
</svg>
