<?xml version="1.0" encoding="utf-8"?>
<!-- Generator: Adobe Illustrator 18.1.1, SVG Export Plug-In . SVG Version: 6.00 Build 0)  -->
<svg version="1.1" id="Layer_1" xmlns="http://www.w3.org/2000/svg" xmlns:xlink="http://www.w3.org/1999/xlink" x="0px" y="0px"
	 viewBox="0 0 100 100" enable-background="new 0 0 100 100" xml:space="preserve">
<g>
	<circle fill="#D0CAC3" cx="50" cy="50" r="50"/>
</g>
<path fill="#090C10" d="M53.5,90H41.9v-1.2c0-7.4,2.3-16.7,7-27.8c7-16.8,13.5-29.7,19.5-38.6l0.8-1.2H41.9c-3.9,0-6.9,0.8-9,2.5
	c-2.1,1.6-3.6,4.4-4.6,8.2h-4.5L28.7,10h2.9c1.7,0.9,4.7,1.4,9,1.4h35.6v6.2c-1.3,1.8-2.9,4.8-4.9,8.8c-3.8,7.5-7.4,16.2-10.6,26.2
	C56,67.2,53.6,79.7,53.5,90z"/>
</svg>
