<?xml version="1.0" encoding="utf-8"?>
<!-- Generator: Adobe Illustrator 18.1.1, SVG Export Plug-In . SVG Version: 6.00 Build 0)  -->
<svg version="1.1" id="Layer_1" xmlns="http://www.w3.org/2000/svg" xmlns:xlink="http://www.w3.org/1999/xlink" x="0px" y="0px"
	 viewBox="0 0 100 100" enable-background="new 0 0 100 100" xml:space="preserve">
<g>
	<circle fill="#D0CAC3" cx="50" cy="50" r="50"/>
</g>
<path fill="#090C10" d="M41,49.5l-1.7-1.2c-5.1-3.5-8.5-6.3-10.1-8.5C27,37.1,26,33.9,26,30.3c0-6.1,2.6-11.1,7.7-14.9
	C38.5,11.8,44,10,50.3,10c5.9,0,11.2,1.6,15.8,4.7c5.2,3.5,7.8,8.1,7.8,13.9c0,7-4.9,12.7-14.7,17C70.3,50.9,75.8,58.4,75.8,68
	c0,6.9-2.6,12.4-7.9,16.4C63.1,88.2,57.2,90,50,90c-6.7,0-12.5-1.7-17.4-5.1c-5.6-3.9-8.3-9-8.3-15.3c0-6.4,3-11.6,8.9-15.8
	C34.8,52.7,37.4,51.3,41,49.5z M45.5,51.4c-8.1,3.7-12.1,9.5-12.1,17.4c0,5.1,1.6,9.2,4.9,12.3c3.3,3.1,7.5,4.6,12.6,4.6
	c4.6,0,8.5-1.2,11.6-3.7c3.2-2.5,4.8-5.9,4.8-10.3c0-6.6-4.4-12-13.1-16.1L45.5,51.4z M54.6,43.4c7.1-3.1,10.6-7.9,10.6-14.1
	c0-4.3-1.5-7.8-4.5-10.4c-3-2.6-6.7-3.9-11.1-3.9c-3.7,0-6.9,1-9.6,3c-3,2.2-4.4,5-4.4,8.6c0,4.4,2.1,7.9,6.2,10.6
	c0.8,0.5,4.4,2.3,10.8,5.3L54.6,43.4z"/>
</svg>
