<?xml version="1.0" encoding="utf-8"?>
<!-- Generator: Adobe Illustrator 18.1.1, SVG Export Plug-In . SVG Version: 6.00 Build 0)  -->
<svg version="1.1" id="Layer_1" xmlns="http://www.w3.org/2000/svg" xmlns:xlink="http://www.w3.org/1999/xlink" x="0px" y="0px"
	 viewBox="0 0 100 100" enable-background="new 0 0 100 100" xml:space="preserve">
<g>
	<circle fill="#D0CAC3" cx="50" cy="50" r="50"/>
</g>
<path fill="#090C10" d="M63.4,55.5c-5.9,5.6-11.9,8.4-17.9,8.4c-6.6,0-11.8-2.6-15.8-7.8c-3.7-4.8-5.5-10.5-5.5-17.2
	c0-7.3,2.2-13.8,6.5-19.5c4.7-6.2,10.6-9.3,17.6-9.3c8.6,0,15.5,3.7,20.6,11.2c4.6,6.6,6.9,14.3,6.9,23.3c0,12.7-4.2,23.5-12.7,32.3
	c-8.4,8.8-19,13.2-31.7,13.3v-4.2c3.9-0.2,7-0.6,9.3-1.3C53.7,80.5,61.3,70.9,63.4,55.5z M64.2,47.4c0.1-1.7,0.1-3.3,0.1-4.8
	c0-6.3-1.1-12-3.2-17.2c-2.9-6.9-7-10.4-12.4-10.4c-4.7,0-8.1,2.4-10.4,7.1c-1.8,3.7-2.7,8.1-2.7,13.3c0,5.6,0.9,10.3,2.6,14.3
	c2.3,5.4,5.9,8.1,10.8,8.1C54.9,57.8,60,54.4,64.2,47.4z"/>
</svg>
