<?xml version="1.0" encoding="utf-8"?>
<!-- Generator: Adobe Illustrator 18.1.1, SVG Export Plug-In . SVG Version: 6.00 Build 0)  -->
<svg version="1.1" id="Layer_1" xmlns="http://www.w3.org/2000/svg" xmlns:xlink="http://www.w3.org/1999/xlink" x="0px" y="0px"
	 viewBox="0 0 100 100" enable-background="new 0 0 100 100" xml:space="preserve">
<g>
	<path fill="#D0CAC3" d="M100,50c0,27.6-22.4,50-50,50C22.4,100,0,77.6,0,50C0,22.4,22.4,0,50,0C77.6,0,100,22.4,100,50z"/>
</g>
<g>
	<path fill="#090C10" d="M56.6,80v-3.3c4.7-0.5,7.1-1.9,7.1-4.1c0-1.6-0.6-3.2-1.9-4.7l-13-16L38.5,64c-2.6,3-3.9,5.4-3.9,7.4
		c0,3,2.4,4.8,7.1,5.4V80H16.7v-3.3c3.2-0.6,5.9-1.8,8.1-3.4c1.5-1.2,3.6-3.4,6.3-6.4l15.4-17.9L28.7,27.3c-2.3-2.8-4.1-4.6-5.4-5.5
		c-1.7-1.2-4.1-2-7.2-2.4V16h29.5v3.3c-4.5,0.9-6.7,2.2-6.7,4.1c0,1.2,0.6,2.6,1.8,4.1l11.8,14.3L62,30.1c1.7-2.1,2.6-3.9,2.6-5.5
		c0-2.6-2.1-4.3-6.3-5.1V16h23.5v3.3c-2.1,0.4-3.5,0.8-4.2,1.2c-2.6,1.2-6.5,4.9-11.8,10.9c-0.9,1-4.5,5.4-10.8,13.3L74,68
		c4.1,5.1,8.3,8,12.6,8.7V80H56.6z"/>
</g>
</svg>
